<svg xmlns="http://www.w3.org/2000/svg" fill="currentColor" aria-hidden="true" viewBox="0 0 432 432"><path d="M250.3 31.1c-1.2.4-2.9 2.1-3.7 3.8-.9 1.6-2.2 3.3-2.8 3.8-.7.4-9.8 1-20.3 1.3-18.7.5-19.1.5-26 3.7-3.8 1.7-8 3.5-9.2 3.8-1.3.3-4 2.1-6.2 3.9-2.1 1.8-5.3 3.8-7 4.5-3.3 1.4-11.7 11.4-18.1 21.5-5.7 9.1-9.9 25.4-9.9 38.6 0 19.1 7.8 40.1 18.5 49.9 4.8 4.4 5.3 6 2.5 8.5-1.6 1.5-6 1.6-46 1.6-38.8-.1-44.6.1-46.7 1.5-1.3.8-2.4 1.9-2.4 2.4s-1.7 2-3.9 3.4c-3 2-4.5 4.1-6.7 9.4-2.7 6.6-2.8 7.3-3.2 29.2-.3 20.5-.2 23.2 1.9 31.3 1.9 7.9 2.7 9.5 6.9 14.1 7.2 7.8 13.1 9.8 29.4 9.6 10.8-.1 13 .2 14.7 1.7 2.4 2.2 2.4 3.6 0 5.8-1.6 1.5-3.9 1.7-14.3 1.7-6.8-.1-15 .3-18.3.9-5.3.8-6.5 1.5-10.6 5.7-3.5 3.7-5.2 6.6-7.2 12.8-2.6 7.7-2.7 8.9-2.7 29.2 0 19.8.2 21.9 2.5 30 2.3 7.7 3.2 9.3 7.5 13.6 6.7 6.5 10.9 7.7 27.5 7.7 11.8 0 13.5.2 15.8 2 2.4 1.9 2.6 2.9 2.9 9.8.3 7.5.4 7.7 3.7 9.9l3.4 2.3 103.8-.2 103.7-.3 2.5-2.3c2.2-2.1 2.5-3.4 2.9-10.4.4-10.6.7-10.8 16.3-10.8 22 0 27.7-2.5 34-15.1 3.3-6.4 3.5-7.5 3.5-16.4 0-11.5.6-12 9.2-7.9l5.9 2.8 3.6-1.9c2-1.1 4.5-3.2 5.6-4.7 1.8-2.3 1.8-3 .7-5.7-.7-1.7-2.8-4.5-4.8-6.2-2.9-2.6-4.1-3-6.9-2.6-1.8.3-4.6 1.5-6.2 2.6-3.5 2.5-5.7 2.7-6.5.5-.3-.9-.6-6.5-.6-12.5 0-9.9-.3-11.5-2.8-17.2-1.8-3.8-4.6-7.8-7.4-10.3-4.2-3.9-4.9-4.2-12.4-4.9-4.3-.3-12.3-.5-17.7-.3-8.8.3-10 .1-11.3-1.6-1.8-2.5-1.8-3.7 0-6.2 1.3-1.7 2.5-1.9 13.5-1.6 10.3.3 13.1 0 18.6-1.8 10.3-3.4 12.5-5.4 16.2-14.5l3.3-8v-54.2l-2.9-6.5c-2.8-6.2-7.8-11.5-13.8-14.6-1.5-.9-14.8-1.2-46.2-1.2-26.1 0-45-.4-46.5-1-3.9-1.4-3.2-4.2 2.3-9.5 2.7-2.6 5.5-6.2 6.2-7.9.6-1.7 2.5-5.2 4.1-7.8 4.1-6.5 6.1-20 5.6-37.8l-.3-13.5 5.3-2.6c8.9-4.2 9.5-7.7 3.2-20.6-5-10.3-7.6-13.7-18.9-25-12.7-12.6-30.1-21.7-36.8-19.2m15.4 24.3c8 6.3 12.3 10.5 17.1 16.4 3.6 4.6 4 7.2 1.5 9.4-2.2 1.9-14.5 6.8-17 6.8-1 0-5 1.6-9 3.6-8.9 4.4-13.3 5.2-15.6 2.9s-2.2-3.5 1.2-8.6c1.6-2.4 3.6-7.2 4.5-10.6 1.4-5.7 7.4-19 9.8-22.1 1.6-1.9 2.9-1.5 7.5 2.2m-33.6 3.2c2.1 1.9 2.4 4.6 1 9-.5 1.6-1.2 4.6-1.6 6.6-.3 2-1.4 4.7-2.5 6-1.7 2-2 2.1-3.4.8-1.5-1.5-7.4-14.7-8.3-18.8-.3-1.4.2-3 1.3-4.3 1.6-1.8 2.7-2 6.8-1.5 2.7.3 5.7 1.3 6.7 2.2M199 66c1.1 1.1 2 2.9 2 4s1.2 4.8 2.6 8.2 3.2 9.3 4.1 13.2c.8 3.9 2.7 10 4.3 13.6 1.5 3.6 3.1 7.9 3.5 9.6 1.4 6.8 6.8 8.5 18.9 6 8-1.7 10.9-2.8 13.7-5.3.9-.7 5.2-2.1 9.5-3 5.6-1.1 8.9-2.4 11.4-4.4 3.9-3.3 7.5-3.7 10.2-1.2 1.4 1.3 1.8 3.1 1.8 8.9 0 17.8-4.5 28.4-17.9 42.2-6.1 6.3-9.3 8.7-16.1 12-11 5.4-17.2 6.6-28.3 5.8-16.3-1.1-32.9-10.8-44.5-25.9-4.5-5.8-6.8-11.2-8.3-19.7-.6-3-1.7-7.4-2.6-9.7-1.3-3.4-1.3-4.8-.3-7.5.6-1.8 2.2-7.2 3.4-12 1.3-4.8 3.1-9.8 4-11 .9-1.3 3.2-4.6 5.1-7.5s5.1-6.5 7.1-8 5.3-4.5 7.4-6.6c4.4-4.2 6.1-4.6 9-1.7m165 127.3c5.1 2.6 9.2 13.4 7 18.6-1.8 4.5-4.6 5.1-22.2 5.1h-16l-4.3 4.6c-2.4 2.7-4.7 4.4-5.4 4-.6-.4-1.8-3.3-2.7-6.4-2.8-9.9-7.6-13.2-19.4-13.2-8.2 0-12.3 1.5-16.4 5.9-4.1 4.3-7 4-11.5-1-3.4-3.8-4.1-4.1-11-5-8.6-1-12.7-.2-17.6 3.6-4.1 3.1-5.5 7.4-5.5 17.2 0 9.4.8 11.2 7.2 16.2l5.3 4.3 8.2-.4c8.2-.3 8.2-.3 12.7-4.7 4-3.9 4.8-4.3 7.9-3.7 1.8.3 5.3 2.3 7.7 4.4 4.1 3.5 4.9 3.7 12 4 7.2.4 7.7.2 12.5-3 3.7-2.6 5.7-4.9 7.7-9.1 1.5-3.1 3.2-5.7 3.7-5.7.6 0 2.7 1.1 4.7 2.5 3.6 2.4 4.2 2.5 20.4 2.5 15.4 0 16.9.2 19.4 2.1 2.3 1.8 2.6 2.7 2.6 8.5 0 5.9-.3 6.7-3.4 10.2l-3.4 3.7-136.4.3c-102.1.2-137.4 0-140.6-.9-6.7-1.8-8.5-4.9-8-13.7.3-5.9.7-7.7 2.3-8.8 1.6-1.2 13.8-1.4 74.6-1.4h72.8l2-2.6c3-3.8 2.6-7.1-1.3-11l-3.4-3.4h-71.6c-70.3 0-71.6 0-73.6-2-1.5-1.5-2-3.3-1.9-7.3 0-7.8 1.8-11.9 5.9-13.9 3.3-1.7 12-1.8 140-1.8 107.4 0 137 .3 139 1.3m-61.5 34.2c0 2.5-4 3.3-4.9 1-.9-2.4.2-3.7 2.7-3.3 1.4.2 2.2 1 2.2 2.3m12.7 51.2c2.2 2 2.3 3.1.1 5.5-1.5 1.7-5.6 1.8-89.6 1.8-80.5 0-88.2-.1-89.9-1.7-1-.9-1.8-2.1-1.8-2.8 0-1.9 3.3-4.3 6.5-4.7 1.7-.1 41.2-.2 87.9 0 77.2.2 85.1.4 86.8 1.9m52.2 27.4c1.3 1.5 2.9 5.4 3.6 8.9 1.5 7.3.4 10.9-4 12.1-1.4.4-10.2.7-19.7.8l-17.2.1-2 2.6c-2.6 3.3-2.6 6-.2 10.1l2 3.1 19.1.4c18.8.3 19.2.4 21.1 2.7 2.4 3 2.4 5.7-.2 12.6-3.7 9.9 11.7 9-145.9 9-110 0-139-.3-140.7-1.3-2.6-1.5-4.3-6.8-4.5-14.3-.2-9.6-6.4-8.9 77-8.9h72.6l2.3-2.2c2.7-2.6 3.1-8.2.7-11.6l-1.5-2.2h-73.2c-66 0-73.5-.2-75.6-1.6-2.1-1.5-2.3-2.2-1.9-9.9.3-8.9 1.8-12 6.2-12.8 1.1-.3 64.6-.4 140.9-.3l138.9.1zM313 385.9c1.4.4 2.7 1.5 2.9 2.6.8 4.6 1.9 4.5-90.2 4.5-57.9 0-87.5-.3-88.8-1-2.6-1.4-2.4-4.4.4-5.8 2.5-1.2 171.3-1.5 175.7-.3"/><path d="M295.8 314.4c-2 .7-6 3.2-8.9 5.5-2.8 2.2-6.2 4.1-7.4 4.1-1.3 0-4.2-1.6-6.6-3.6-6.7-5.6-9.5-6.7-15.8-6.2-6.4.5-14.8 5-16.8 8.9-1.8 3.4-1.7 20.1.1 24.4 2.1 5 12.1 10 18.7 9.2 6.1-.7 10.5-3 14.6-7.3 1.8-1.9 3.6-3.4 4.1-3.4s2.4 1.1 4.3 2.5c11.2 8.2 10.9 8 17.8 8 5.2-.1 7.7-.7 11.8-2.8 6.4-3.3 7.8-5.4 9.3-13.5.9-5.2.8-7.3-.5-11.7-1.8-6.3-2.7-7.3-9.9-11.4-6.6-3.8-10.1-4.5-14.8-2.7m28.1-271.5c-2.8 2.9-3.6 6.1-2.3 9.6.8 2 9.2 8.5 11.1 8.5.7 0 3.4-1.9 5.8-4.1 5.7-5.2 6.1-9.4 1.6-14-2.5-2.5-3.7-2.9-8.1-2.9s-5.6.4-8.1 2.9m-211.7 5.8c-1.9.7-4.2 5.8-4.2 9.2 0 3.9 5.3 10.1 8.6 10.1 2.7 0 5.7-1.5 9.2-4.4 1.7-1.5 2.2-3 2.2-6.8 0-6.7-2.3-8.8-9.2-8.7-2.9 0-5.9.3-6.6.6m243.3 24.5c-5.4 3-11.7 9.5-14.9 15.3-4.8 8.5-4.9 14.9-.6 23.6 3.5 6.8 9 13.3 13.2 15.5 4 2.1 17.2 2.9 23.9 1.5 8-1.7 13.1-6.4 18-16.5 2.6-5.2 3.9-9.4 3.9-12 0-5.8-7-19.3-11.7-22.6-8.9-6.2-8.2-6-19.3-6-5.9 0-11.4.6-12.5 1.2M370.4 90c3.7 1.4 8.6 8.6 8.6 12.8 0 5.2-5.4 10.2-11 10.2-3.4 0-4.8-.6-7.6-3.4-2.7-2.7-3.4-4.2-3.4-7.3 0-5.2 4.8-11.2 10.7-13.2.1-.1 1.3.3 2.7.9M69.1 111.4c-4.7 1.6-10.4 6.4-12.8 11-2.3 4.4-2.8 16.2-1 22.7 1.6 5.4 6.1 10.4 12.4 13.8 2.6 1.3 18.3 1.7 20.6.5 1.7-1 10.5-9.2 12.5-11.7 2.3-2.7 3.2-8.8 2.6-15.6-.6-5.5-1.2-7.1-5.4-12.5-5.2-6.8-8-8.2-18.2-9.1-4.1-.3-7.9 0-10.7.9m15.2 19.8c3.6 4.9-.3 11.8-6.7 11.8-5.9 0-8.8-7.4-5-12.8 2.3-3.3 8.9-2.8 11.7 1M333 147c-5.8 6.2-4.6 12.2 3.2 16.5 3.5 1.9 3.7 1.9 7.8 0 5.2-2.3 7-4.9 7-9.8 0-5.8-4.3-9.7-10.5-9.7-3.9 0-5.2.5-7.5 3M31 214.8c-4.6 4.4-4.8 5.7-2 11.2 2.3 4.6 4.6 6 9.2 6 5.5-.1 9.8-5 9.8-11.1 0-3-.7-4.3-3.5-6.8-4.9-4.3-8.4-4.1-13.5.7"/></svg>